:SAMPLES-PER-SECOND 30
:FULLY-SPECIFIED
:DEGREES
154
root  44.6237 19.4508 2.29018 -137.676 78.2464 175.838
RightUpLeg  -47.0279 3.1849 8.99576
RightLeg  107.816 5.75597 16.5807
RightFoot  -2.39161 0.124241 -1.31179
RightToes  1.16415e-010 -3.18055e-015 8.94531e-016
Spine  52.6702 -2.12492 10.1741
Spine1  -19.1403 2.99723 -3.12064
HEad  -29.8414 -12.3853 9.79475
LeftShoulder1  0 -2.69403e-036 -1.28585e-037
LeftArm  10.9037 -33.362 -109.174
LeftForeArm  30.7858 -8.91422 1.08925
LeftHand  -3.87066 -0.66822 46.6093
RightShoulder  -2.48481e-017 0 -8.08114e-019
RightArm  7.24109 32.5473 61.1438
RightForeArm  -2.48487 23.1019 -24.836
RightHand  5.11784 -17.5265 -32.2284
LeftUpLeg  -28.2169 -8.66639 10.2667
LeftLeg  83.4902 -13.1617 -6.01213
LeftFoot  19.4349 0.828008 -2.60855
LeftToes  4.502e-010 -1.85808e-011 5.37561e-011
155
root  45.2379 19.6356 2.36231 -143.539 78.3484 169.611
RightUpLeg  -45.2219 3.1514 7.83023
RightLeg  105.419 6.17879 17.6859
RightFoot  -2.35319 0.111626 -1.1876
RightToes  1.16415e-010 -3.18055e-015 8.94531e-016
Spine  52.8641 -2.63326 9.75266
Spine1  -19.308 2.28164 -5.32219
HEad  -30.1096 -13.2399 10.8796
LeftShoulder1  0 -2.69403e-036 -1.28585e-037
LeftArm  12.0735 -32.5218 -109.815
LeftForeArm  32.5686 -8.02969 0.530949
LeftHand  -3.97227 -0.717843 47.348
RightShoulder  -2.48481e-017 0 -8.08114e-019
RightArm  0.475846 39.0599 56.8238
RightForeArm  -1.04061 17.8016 -18.1568
RightHand  4.45618 -16.6559 -29.3077
LeftUpLeg  -34.7594 -7.53369 8.82799
LeftLeg  90.7585 -12.6699 -5.94602
LeftFoot  17.7 0.344216 -1.02562
LeftToes  4.502e-010 -1.85808e-011 5.37561e-011
156
root  45.8545 19.7824 2.43361 -149.682 79.112 163.511
RightUpLeg  -43.3173 3.65865 6.43955
RightLeg  103.474 6.59694 18.521
RightFoot  -2.10495 0.142249 -1.4986
RightToes  1.16415e-010 -3.18055e-015 8.94531e-016
Spine  53.1077 -2.67007 8.89734
Spine1  -18.6221 1.90753 -7.74286
HEad  -30.9526 -14.0674 12.0222
LeftShoulder1  0 -2.69403e-036 -1.28585e-037
LeftArm  13.9449 -32.403 -110.644
LeftForeArm  33.5862 -7.00092 -0.297499
LeftHand  -4.04086 -0.753314 47.8267
RightShoulder  -2.48481e-017 0 -8.08114e-019
RightArm  -10.3467 44.5158 51.8861
RightForeArm  4.04885 12.2793 -10.7832
RightHand  3.89971 -15.9176 -26.4013
LeftUpLeg  -41.2224 -6.62272 6.8545
LeftLeg  97.7068 -12.2129 -6.01289
LeftFoot  15.8554 0.125755 -0.306746
LeftToes  4.502e-010 -1.85808e-011 5.37561e-011
157
root  46.4857 19.8663 2.49893 -155.181 80.2137 158.927
RightUpLeg  -40.5648 4.51636 5.58194
RightLeg  101.746 7.20929 18.2969
RightFoot  -2.11001 0.134687 -1.40521
RightToes  1.16415e-010 -3.18055e-015 8.94531e-016
Spine  53.9286 -2.33074 7.81214
Spine1  -17.4354 1.92827 -9.86593
HEad  -32.0073 -14.225 12.9974
LeftShoulder1  0 -2.69403e-036 -1.28585e-037
LeftArm  15.3406 -32.674 -111.415
LeftForeArm  34.5637 -5.92656 -1.06942
LeftHand  -4.08324 -0.789448 48.0308
RightShoulder  -2.48481e-017 0 -8.08114e-019
RightArm  -13.2455 48.5186 47.8388
RightForeArm  2.15703 6.60297 -7.14
RightHand  3.43861 -15.3044 -23.5556
LeftUpLeg  -46.976 -6.15488 5.24631
LeftLeg  104.266 -11.6934 -6.25178
LeftFoot  14.6847 0.420727 -1.50468
LeftToes  4.502e-010 -1.85808e-011 5.37561e-011
158
root  47.1181 19.8272 2.52121 -154.239 81.4868 161.66
RightUpLeg  -36.7382 5.69965 6.20491
RightLeg  99.9351 8.03182 16.8616
RightFoot  -2.29319 0.045582 -0.46693
RightToes  1.16415e-010 -3.18055e-015 8.94531e-016
Spine  55.211 -2.02859 7.44197
Spine1  -16.218 2.31938 -11.7487
HEad  -32.6775 -13.5823 14.1925
LeftShoulder1  0 -2.69403e-036 -1.28585e-037
LeftArm  15.8222 -32.9497 -111.753
LeftForeArm  36.0947 -4.54165 -1.83976
LeftHand  -4.13613 -0.829375 48.3144
RightShoulder  -2.48481e-017 0 -8.08114e-019
RightArm  -12.209 50.8123 45.5227
RightForeArm  -1.57494 3.15929 -5.19379
RightHand  2.96372 -14.6181 -20.3018
LeftUpLeg  -51.6081 -5.78565 4.98748
LeftLeg  110.297 -10.6057 -7.78297
LeftFoot  14.6402 0.0513392 -0.0254877
LeftToes  4.502e-010 -1.85808e-011 5.37561e-011
159
root  47.7762 19.6545 2.49861 -143.447 82.8938 174.582
RightUpLeg  -32.1833 7.17892 7.99563
RightLeg  97.8729 8.88611 14.9112
RightFoot  -2.40539 0.00247025 -0.0280665
RightToes  1.16415e-010 -3.18055e-015 8.94531e-016
Spine  56.2338 -1.754 7.6731
Spine1  -14.9159 2.99744 -13.5829
HEad  -32.7542 -12.6293 15.551
LeftShoulder1  0 -2.69403e-036 -1.28585e-037
LeftArm  15.8029 -32.9915 -111.266
LeftForeArm  37.6927 -3.18065 -2.68611
LeftHand  -4.24031 -0.873875 49.07
RightShoulder  -2.48481e-017 0 -8.08114e-019
RightArm  -10.5852 52.0765 45.6217
RightForeArm  -3.49652 1.37241 -3.39665
RightHand  2.61954 -14.1719 -17.4033
LeftUpLeg  -55.1969 -5.28314 5.89327
LeftLeg  115.263 -8.75902 -10.4236
LeftFoot  15.7234 -1.23539 4.90462
LeftToes  4.502e-010 -1.85808e-011 5.37561e-011
160
root  48.5326 19.4226 2.48268 -125.694 84.0594 -165.947
RightUpLeg  -27.545 8.66114 9.79316
RightLeg  95.3818 9.67794 12.9812
RightFoot  -2.60566 0.0437759 -0.49495
RightToes  1.16415e-010 -3.18055e-015 8.94531e-016
Spine  56.4284 -1.19037 7.52955
Spine1  -13.3033 3.78027 -15.0586
HEad  -32.4263 -11.9429 16.3965
LeftShoulder1  0 -2.69403e-036 -1.28585e-037
LeftArm  15.7609 -32.6223 -109.867
LeftForeArm  38.4334 -2.69351 -3.37417
LeftHand  -4.36533 -0.92069 50.0044
RightShoulder  -2.48481e-017 0 -8.08114e-019
RightArm  -8.3192 52.9955 48.5681
RightForeArm  -4.79032 -0.212731 -1.70243
RightHand  2.73238 -14.6726 -17.1469
LeftUpLeg  -58.1723 -4.91836 7.08945
LeftLeg  118.749 -6.89018 -12.6257
LeftFoot  17.7877 -1.96625 7.24198
LeftToes  4.502e-010 -1.85808e-011 5.37561e-011
161
root  49.4011 19.1727 2.50524 -108.218 84.6853 -147.525
RightUpLeg  -23.3066 9.58685 10.9815
RightLeg  92.4214 10.3762 11.1305
RightFoot  -3.18275 0.0670355 -0.78137
RightToes  1.16415e-010 -3.18055e-015 8.94531e-016
Spine  55.8521 -0.54296 6.87554
Spine1  -11.678 4.30341 -15.8586
HEad  -31.9471 -11.5602 16.5753
LeftShoulder1  0 -2.69403e-036 -1.28585e-037
LeftArm  15.9529 -31.8015 -107.822
LeftForeArm  38.0743 -3.06221 -3.86034
LeftHand  -4.44085 -0.957129 50.5096
RightShoulder  -2.48481e-017 0 -8.08114e-019
RightArm  -7.46596 52.8529 53.649
RightForeArm  -5.71569 -1.84866 -1.44248
RightHand  3.40573 -16.0359 -20.5985
LeftUpLeg  -60.4111 -4.9475 7.94406
LeftLeg  120.889 -5.55702 -13.92
LeftFoot  20.875 -1.87969 6.30982
LeftToes  4.502e-010 -1.85808e-011 5.37561e-011
162
root  50.3436 18.9201 2.55406 -97.2522 85.0848 -136.233
RightUpLeg  -19.5738 9.72049 11.403
RightLeg  89.0666 10.9428 9.39753
RightFoot  -3.7708 0.0456374 -0.593604
RightToes  1.16415e-010 -3.18055e-015 8.94531e-016
Spine  54.9682 -0.303081 5.97218
Spine1  -10.5234 4.19773 -16.4477
HEad  -31.317 -10.9376 16.6199
LeftShoulder1  0 -2.69403e-036 -1.28585e-037
LeftArm  17.1334 -30.4711 -105.211
LeftForeArm  36.3357 -3.69093 -4.45791
LeftHand  -4.47409 -0.978867 50.6925
RightShoulder  -2.48481e-017 0 -8.08114e-019
RightArm  -8.80423 50.7745 59.1692
RightForeArm  -5.60492 -2.06036 -3.33722
RightHand  4.29187 -17.2652 -25.6433
LeftUpLeg  -61.3095 -5.34006 7.94049
LeftLeg  121.682 -4.98584 -14.4562
LeftFoot  24.4259 -1.44305 4.44597
LeftToes  4.502e-010 -1.85808e-011 5.37561e-011
163
root  51.3206 18.6938 2.59706 -91.6596 85.8819 -130.867
RightUpLeg  -16.5399 9.4904 10.9336
RightLeg  85.5164 11.3572 7.94594
RightFoot  -3.7295 0.0654179 -0.81311
RightToes  1.16415e-010 -3.18055e-015 8.94531e-016
Spine  53.8252 -0.502685 4.57455
Spine1  -9.78311 3.34324 -16.989
HEad  -30.2744 -9.43944 16.5123
LeftShoulder1  0 -2.69403e-036 -1.28585e-037
LeftArm  19.7087 -28.0875 -101.689
LeftForeArm  32.8834 -5.14689 -4.9095
LeftHand  -4.5196 -0.993693 51.0359
RightShoulder  -2.48481e-017 0 -8.08114e-019
RightArm  -9.39054 47.8087 64.4841
RightForeArm  -4.41761 -0.266939 -5.37211
RightHand  4.92328 -17.8713 -29.3523
LeftUpLeg  -60.7095 -5.92715 6.74847
LeftLeg  120.825 -5.29442 -14.3755
LeftFoot  28.1485 -1.02399 2.93184
LeftToes  4.502e-010 -1.85808e-011 5.37561e-011
164
root  52.3237 18.5182 2.62592 -105.421 87.6316 -145.603
RightUpLeg  -14.5684 9.10272 9.29808
RightLeg  82.02 11.6469 6.91146
RightFoot  -3.05948 0.142237 -1.59068
RightToes  1.16415e-010 -3.18055e-015 8.94531e-016
Spine  52.1495 -0.816501 1.98324
Spine1  -9.16405 1.64764 -16.3307
HEad  -28.7903 -6.75538 15.5104
LeftShoulder1  0 -2.69403e-036 -1.28585e-037
LeftArm  22.5529 -23.9067 -97.2039
LeftForeArm  28.4825 -8.87524 -3.90586
LeftHand  -4.48379 -0.976219 50.8263
RightShoulder  -2.48481e-017 0 -8.08114e-019
RightArm  -6.6732 45.9213 70.3933
RightForeArm  -2.82546 1.70186 -5.51222
RightHand  5.32911 -18.3065 -31.3258
LeftUpLeg  -59.1914 -6.80539 4.23958
LeftLeg  118.61 -6.27041 -13.7823
LeftFoot  31.2302 -0.945052 2.53548
LeftToes  4.502e-010 -1.85808e-011 5.37561e-011
